<?xml version="1.0" encoding="UTF-8" standalone="no"?>
<svg
   xmlns:dc="http://purl.org/dc/elements/1.1/"
   xmlns:cc="http://creativecommons.org/ns#"
   xmlns:rdf="http://www.w3.org/1999/02/22-rdf-syntax-ns#"
   xmlns:svg="http://www.w3.org/2000/svg"
   xmlns="http://www.w3.org/2000/svg"
   id="svg2"
   version="1.1"
   xml:space="preserve"
   width="192"
   height="192"
   viewBox="0 0 192 192"><metadata
     id="metadata8"><rdf:RDF><cc:Work
         rdf:about=""><dc:format>image/svg+xml</dc:format><dc:type
           rdf:resource="http://purl.org/dc/dcmitype/StillImage" /><dc:title></dc:title></cc:Work></rdf:RDF></metadata><defs
     id="defs6"><marker
       orient="auto"
       refY="0.0"
       refX="0.0"
       id="marker11240"
       style="overflow:visible"><path
         id="path11242"
         d="M 0.0,0.0 L 5.0,-5.0 L -12.5,0.0 L 5.0,5.0 L 0.0,0.0 z "
         style="fill-rule:evenodd;stroke:#000000;stroke-width:1pt;stroke-opacity:1;fill:#000000;fill-opacity:1"
         transform="scale(0.4) translate(10,0)" /></marker><marker
       orient="auto"
       refY="0.0"
       refX="0.0"
       id="Arrow1Mend"
       style="overflow:visible;"><path
         id="path10431"
         d="M 0.0,0.0 L 5.0,-5.0 L -12.5,0.0 L 5.0,5.0 L 0.0,0.0 z "
         style="fill-rule:evenodd;stroke:#000000;stroke-width:1pt;stroke-opacity:1;fill:#000000;fill-opacity:1"
         transform="scale(0.4) rotate(180) translate(10,0)" /></marker><marker
       orient="auto"
       refY="0.0"
       refX="0.0"
       id="marker11224"
       style="overflow:visible"><path
         id="path11226"
         d="M 0.0,0.0 L 5.0,-5.0 L -12.5,0.0 L 5.0,5.0 L 0.0,0.0 z "
         style="fill-rule:evenodd;stroke:#000000;stroke-width:1pt;stroke-opacity:1;fill:#000000;fill-opacity:1"
         transform="scale(0.4) translate(10,0)" /></marker><marker
       orient="auto"
       refY="0.0"
       refX="0.0"
       id="marker11098"
       style="overflow:visible"><path
         id="path11100"
         d="M 0.0,0.0 L 5.0,-5.0 L -12.5,0.0 L 5.0,5.0 L 0.0,0.0 z "
         style="fill-rule:evenodd;stroke:#000000;stroke-width:1pt;stroke-opacity:1;fill:#000000;fill-opacity:1"
         transform="scale(0.4) translate(10,0)" /></marker><marker
       orient="auto"
       refY="0.0"
       refX="0.0"
       id="marker10904"
       style="overflow:visible"><path
         id="path10906"
         d="M 0.0,0.0 L 5.0,-5.0 L -12.5,0.0 L 5.0,5.0 L 0.0,0.0 z "
         style="fill-rule:evenodd;stroke:#000000;stroke-width:1pt;stroke-opacity:1;fill:#000000;fill-opacity:1"
         transform="scale(0.4) translate(10,0)" /></marker><marker
       orient="auto"
       refY="0.0"
       refX="0.0"
       id="marker10888"
       style="overflow:visible"><path
         id="path10890"
         d="M 0.0,0.0 L 5.0,-5.0 L -12.5,0.0 L 5.0,5.0 L 0.0,0.0 z "
         style="fill-rule:evenodd;stroke:#000000;stroke-width:1pt;stroke-opacity:1;fill:#000000;fill-opacity:1"
         transform="scale(0.4) translate(10,0)" /></marker><marker
       orient="auto"
       refY="0.0"
       refX="0.0"
       id="marker10882"
       style="overflow:visible"><path
         id="path10884"
         d="M 0.0,0.0 L 5.0,-5.0 L -12.5,0.0 L 5.0,5.0 L 0.0,0.0 z "
         style="fill-rule:evenodd;stroke:#000000;stroke-width:1pt;stroke-opacity:1;fill:#000000;fill-opacity:1"
         transform="scale(0.4) translate(10,0)" /></marker><marker
       style="overflow:visible"
       id="marker10851"
       refX="0.0"
       refY="0.0"
       orient="auto"><path
         transform="scale(0.4) translate(10,0)"
         style="fill-rule:evenodd;stroke:#000000;stroke-width:1pt;stroke-opacity:1;fill:#000000;fill-opacity:1"
         d="M 0.0,0.0 L 5.0,-5.0 L -12.5,0.0 L 5.0,5.0 L 0.0,0.0 z "
         id="path10853" /></marker><marker
       orient="auto"
       refY="0.0"
       refX="0.0"
       id="Arrow1Mstart"
       style="overflow:visible"><path
         id="path10428"
         d="M 0.0,0.0 L 5.0,-5.0 L -12.5,0.0 L 5.0,5.0 L 0.0,0.0 z "
         style="fill-rule:evenodd;stroke:#000000;stroke-width:1pt;stroke-opacity:1;fill:#000000;fill-opacity:1"
         transform="scale(0.4) translate(10,0)" /></marker><marker
       orient="auto"
       refY="0.0"
       refX="0.0"
       id="marker10769"
       style="overflow:visible"><path
         id="path10771"
         style="fill-rule:evenodd;stroke-width:0.625;stroke-linejoin:round;stroke:#000000;stroke-opacity:1;fill:#000000;fill-opacity:1"
         d="M 8.7185878,4.0337352 L -2.2072895,0.016013256 L 8.7185884,-4.0017078 C 6.9730900,-1.6296469 6.9831476,1.6157441 8.7185878,4.0337352 z "
         transform="scale(1.1) translate(1,0)" /></marker><marker
       orient="auto"
       refY="0.0"
       refX="0.0"
       id="Arrow2Mstart"
       style="overflow:visible"><path
         id="path10446"
         style="fill-rule:evenodd;stroke-width:0.625;stroke-linejoin:round;stroke:#000000;stroke-opacity:1;fill:#000000;fill-opacity:1"
         d="M 8.7185878,4.0337352 L -2.2072895,0.016013256 L 8.7185884,-4.0017078 C 6.9730900,-1.6296469 6.9831476,1.6157441 8.7185878,4.0337352 z "
         transform="scale(0.6) translate(0,0)" /></marker><marker
       orient="auto"
       refY="0.0"
       refX="0.0"
       id="Arrow1Sstart"
       style="overflow:visible"><path
         id="path10434"
         d="M 0.0,0.0 L 5.0,-5.0 L -12.5,0.0 L 5.0,5.0 L 0.0,0.0 z "
         style="fill-rule:evenodd;stroke:#000000;stroke-width:1pt;stroke-opacity:1;fill:#000000;fill-opacity:1"
         transform="scale(0.2) translate(6,0)" /></marker><marker
       orient="auto"
       refY="0.0"
       refX="0.0"
       id="Arrow2Lstart"
       style="overflow:visible"><path
         id="path10440"
         style="fill-rule:evenodd;stroke-width:0.625;stroke-linejoin:round;stroke:#000000;stroke-opacity:1;fill:#000000;fill-opacity:1"
         d="M 8.7185878,4.0337352 L -2.2072895,0.016013256 L 8.7185884,-4.0017078 C 6.9730900,-1.6296469 6.9831476,1.6157441 8.7185878,4.0337352 z "
         transform="scale(1.1) translate(1,0)" /></marker><marker
       orient="auto"
       refY="0.0"
       refX="0.0"
       id="Arrow1Lstart"
       style="overflow:visible"><path
         id="path10422"
         d="M 0.0,0.0 L 5.0,-5.0 L -12.5,0.0 L 5.0,5.0 L 0.0,0.0 z "
         style="fill-rule:evenodd;stroke:#000000;stroke-width:1pt;stroke-opacity:1;fill:#000000;fill-opacity:1"
         transform="scale(0.8) translate(12.5,0)" /></marker><clipPath
       id="clipPath16"
       clipPathUnits="userSpaceOnUse"><path
         id="path18"
         d="M 0,192 192,192 192,0 0,0 0,192 Z" /></clipPath><clipPath
       id="clipPath26"
       clipPathUnits="userSpaceOnUse"><path
         id="path28"
         d="M -4.88281e-4,192 192,192 192,-4.88281e-4 l -192.000488281,0 0,192.000488281 z" /></clipPath><clipPath
       id="clipPath34"
       clipPathUnits="userSpaceOnUse"><path
         id="path36"
         d="M -4.88281e-4,192 192,192 192,-4.88281e-4 l -192.000488281,0 0,192.000488281 z" /></clipPath><clipPath
       id="clipPath38"
       clipPathUnits="userSpaceOnUse"><path
         id="path40"
         d="M 0,192 192,192 192,0 0,0 0,192 Z" /></clipPath><clipPath
       id="clipPath42"
       clipPathUnits="userSpaceOnUse"><path
         id="path44"
         d="M 0,192 192,192 192,0 0,0 0,192 Z" /></clipPath><clipPath
       id="clipPath116"
       clipPathUnits="userSpaceOnUse"><path
         id="path118"
         d="m 0,192 192,0 0,-192.000488281 -192,0 L 0,192 Z" /></clipPath><clipPath
       id="clipPath120"
       clipPathUnits="userSpaceOnUse"><path
         id="path122"
         d="m 0,192 192,0 0,-191.999511719 -192,0 L 0,192 Z" /></clipPath><clipPath
       id="clipPath124"
       clipPathUnits="userSpaceOnUse"><path
         id="path126"
         d="M 192,192 0,192 0,0 l 192,0 0,192 z" /></clipPath><filter
       style="color-interpolation-filters:sRGB;"
       id="filter10356"><feFlood
         flood-opacity="0.196078"
         flood-color="rgb(0,0,0)"
         result="flood"
         id="feFlood10358" /><feComposite
         in="flood"
         in2="SourceGraphic"
         operator="in"
         result="composite1"
         id="feComposite10360" /><feGaussianBlur
         in="composite1"
         stdDeviation="4"
         result="blur"
         id="feGaussianBlur10362" /><feOffset
         dx="4"
         dy="4"
         result="offset"
         id="feOffset10364" /><feComposite
         in="SourceGraphic"
         in2="offset"
         operator="over"
         result="composite2"
         id="feComposite10366" /></filter><marker
       orient="auto"
       refY="0"
       refX="0"
       id="Arrow1Sstart-3"
       style="overflow:visible"><path
         id="path10434-6"
         d="M 0,0 5,-5 -12.5,0 5,5 0,0 Z"
         style="fill:#000000;fill-opacity:1;fill-rule:evenodd;stroke:#000000;stroke-width:1pt;stroke-opacity:1"
         transform="matrix(0.2,0,0,0.2,1.2,0)" /></marker><marker
       orient="auto"
       refY="0"
       refX="0"
       id="Arrow1Sstart-3-7"
       style="overflow:visible"><path
         id="path10434-6-5"
         d="M 0,0 5,-5 -12.5,0 5,5 0,0 Z"
         style="fill:#000000;fill-opacity:1;fill-rule:evenodd;stroke:#000000;stroke-width:1pt;stroke-opacity:1"
         transform="matrix(0.2,0,0,0.2,1.2,0)" /></marker><marker
       orient="auto"
       refY="0"
       refX="0"
       id="Arrow2Mstart-3"
       style="overflow:visible"><path
         id="path10446-5"
         style="fill:#000000;fill-opacity:1;fill-rule:evenodd;stroke:#000000;stroke-width:0.625;stroke-linejoin:round;stroke-opacity:1"
         d="M 8.7185878,4.0337352 -2.2072895,0.01601326 8.7185884,-4.0017078 c -1.7454984,2.3720609 -1.7354408,5.6174519 -6e-7,8.035443 z"
         transform="scale(0.6,0.6)" /></marker><filter
       id="filter6016"
       style="color-interpolation-filters:sRGB;"><feFlood
         id="feFlood6018"
         result="flood"
         flood-color="rgb(0,0,0)"
         flood-opacity="0.239216" /><feComposite
         id="feComposite6020"
         result="composite1"
         operator="in"
         in2="SourceGraphic"
         in="flood" /><feGaussianBlur
         id="feGaussianBlur6022"
         result="blur"
         stdDeviation="2"
         in="composite1" /><feOffset
         id="feOffset6024"
         result="offset"
         dy="4"
         dx="0" /><feComposite
         id="feComposite6026"
         result="fbSourceGraphic"
         operator="over"
         in2="offset"
         in="SourceGraphic" /><feColorMatrix
         id="feColorMatrix6028"
         values="0 0 0 -1 0 0 0 0 -1 0 0 0 0 -1 0 0 0 0 1 0"
         in="fbSourceGraphic"
         result="fbSourceGraphicAlpha" /><feFlood
         in="fbSourceGraphic"
         result="flood"
         flood-color="rgb(0,0,0)"
         flood-opacity="0.121569"
         id="feFlood6030" /><feComposite
         result="composite1"
         operator="in"
         in="flood"
         in2="fbSourceGraphic"
         id="feComposite6032" /><feGaussianBlur
         result="blur"
         stdDeviation="2"
         in="composite1"
         id="feGaussianBlur6034" /><feOffset
         result="offset"
         dy="0"
         dx="0"
         id="feOffset6036" /><feComposite
         result="composite2"
         operator="over"
         in="fbSourceGraphic"
         in2="offset"
         id="feComposite6038" /></filter><filter
       id="filter6045"
       style="color-interpolation-filters:sRGB;"><feFlood
         id="feFlood6047"
         result="flood"
         flood-color="rgb(0,0,0)"
         flood-opacity="0.2" /><feComposite
         id="feComposite6049"
         result="composite1"
         operator="in"
         in2="SourceGraphic"
         in="flood" /><feGaussianBlur
         id="feGaussianBlur6051"
         result="blur"
         stdDeviation="4"
         in="composite1" /><feOffset
         id="feOffset6053"
         result="offset"
         dy="4"
         dx="0" /><feComposite
         id="feComposite6055"
         result="composite2"
         operator="over"
         in2="offset"
         in="SourceGraphic" /></filter></defs><g
     id="layer1"><rect
       y="156.66219"
       x="32.2495"
       height="7.3383112"
       width="127.5"
       id="rect596"
       style="fill:#ffffff;fill-opacity:1;stroke:none;stroke-opacity:1" /><rect
       y="31.9995"
       x="92"
       height="92"
       width="8"
       id="rect1508"
       style="fill:#ffffff;fill-opacity:1;stroke:none;stroke-opacity:1" /><path
       d="m 96.000003,144.0005 -17.320959,-29.99974 34.641016,-5.2e-4 z"
       id="path1516"
       style="fill:#ffffff;fill-opacity:1;stroke:none;stroke-opacity:1" /></g></svg>